<svg width="21" height="29" viewBox="0 0 21 29" fill="none" xmlns="http://www.w3.org/2000/svg">
<path d="M4.33072 16.864L0.32872 25.4C0.20272 25.658 0.33572 25.82 0.75572 25.74L4.01372 25.032C4.07827 25.0094 4.14934 25.015 4.20961 25.0473C4.26988 25.0796 4.31382 25.1357 4.33072 25.202L5.79772 28.209C5.93772 28.533 6.09972 28.599 6.22572 28.342L10.4857 19.408L4.33072 16.864ZM16.6707 16.864L20.6727 25.4C20.8057 25.658 20.6657 25.82 20.2457 25.74L16.9877 25.032C16.9232 25.0101 16.8524 25.0159 16.7923 25.0481C16.7322 25.0804 16.6882 25.1361 16.6707 25.202L15.2037 28.209C15.0637 28.533 14.9087 28.599 14.7757 28.342L10.5157 19.408L16.6707 16.864Z" fill="#DE7818"/>
<path fill-rule="evenodd" clip-rule="evenodd" d="M9.29872 21.892C9.29872 21.899 9.28472 21.892 9.26972 21.892C7.0365 21.6443 4.9428 20.6826 3.29972 19.15C3.29172 19.142 3.26972 19.135 3.27672 19.127L3.46072 18.737C3.46872 18.722 3.48272 18.759 3.49072 18.767C5.06772 20.233 7.25771 21.155 9.49771 21.427C9.50571 21.427 9.52072 21.427 9.52072 21.435L9.29872 21.892Z" fill="#B35454"/>
<path d="M10.5007 21.478C16.2936 21.478 20.9897 16.7819 20.9897 10.989C20.9897 5.19609 16.2936 0.5 10.5007 0.5C4.7078 0.5 0.0117188 5.19609 0.0117188 10.989C0.0117188 16.7819 4.7078 21.478 10.5007 21.478Z" fill="#9B9B9B"/>
<path d="M10.5011 20.0341C15.4965 20.0341 19.5461 15.9845 19.5461 10.9891C19.5461 5.99368 15.4965 1.94409 10.5011 1.94409C5.50564 1.94409 1.45605 5.99368 1.45605 10.9891C1.45605 15.9845 5.50564 20.0341 10.5011 20.0341Z" fill="#949494"/>
<path d="M10.751 20C15.5835 20 19.501 16.0825 19.501 11.25C19.501 6.41751 15.5835 2.5 10.751 2.5C5.91849 2.5 2.00098 6.41751 2.00098 11.25C2.00098 16.0825 5.91849 20 10.751 20Z" fill="#B6B6B6"/>
<path fill-rule="evenodd" clip-rule="evenodd" d="M7.19043 9.51795V9.55395H9.15943V9.51295C9.15943 8.81495 9.66343 8.32295 10.3894 8.32295C11.0864 8.32295 11.5444 8.73895 11.5444 9.35995C11.5444 9.85795 11.2274 10.286 9.98443 11.434L7.31443 13.948V15.384H13.7414V13.708H10.1784V13.597L11.5734 12.313C13.0734 10.977 13.6234 10.145 13.6234 9.20795C13.6234 7.71395 12.3584 6.69995 10.4654 6.69995C8.50343 6.69995 7.19043 7.83695 7.19043 9.51795Z" fill="#EFEFEF"/>
<path fill-rule="evenodd" clip-rule="evenodd" d="M12.9707 3.58899C16.3268 4.39112 18.722 7.3525 18.8049 10.8021C18.8877 14.2517 16.6374 17.3247 13.3237 18.287C15.3587 16.732 16.7077 14.078 16.7077 11.063C16.7077 7.87899 15.2037 5.09999 12.9697 3.58899H12.9707Z" fill="white" fill-opacity="0.2"/>
<path fill-rule="evenodd" clip-rule="evenodd" d="M11.7025 21.8921C11.7095 21.8991 11.7245 21.8921 11.7315 21.8921C14.0245 21.6041 16.1315 20.6821 17.7175 19.1641C17.7245 19.1571 17.7465 19.1501 17.7395 19.1421L17.5545 18.7521C17.5475 18.7371 17.5325 18.7741 17.5245 18.7811C15.9475 20.2481 13.7515 21.1551 11.5035 21.4271C11.4955 21.4271 11.4805 21.4271 11.4805 21.4351L11.7025 21.8921Z" fill="#B35454"/>
</svg>
