<svg width="80" height="32" viewBox="0 0 80 32" fill="none" xmlns="http://www.w3.org/2000/svg">
<g clip-path="url(#clip0_1_322)">
<mask id="mask0_1_322" style="mask-type:luminance" maskUnits="userSpaceOnUse" x="0" y="0" width="80" height="32">
<path d="M80 0H0V32H80V0Z" fill="white"/>
</mask>
<g mask="url(#mask0_1_322)">
<path d="M58.0744 31.9999C54.8535 31.9999 52.2765 30.4043 51.1153 27.9373C50.9495 28.2239 50.7837 28.5041 50.6179 28.7753L50.5931 28.8155C49.6696 30.3144 48.714 31.8646 46.3183 31.8646C43.975 31.8646 43.0023 30.4175 42.1805 29.0756C41.4803 30.5899 39.7748 31.8249 37.3315 31.8249C36.2936 31.8249 35.3386 31.5828 34.5279 31.1307C33.5583 31.6684 32.4563 31.9484 31.3357 31.9418C29.6777 31.9418 28.2563 31.3602 27.2892 30.3895C25.9246 31.4183 24.1086 31.9999 22.1677 31.9999C20.3107 31.9999 18.6676 31.4712 17.3866 30.5476C16.9711 30.9486 16.4671 31.2556 15.9116 31.4464C15.1025 31.7335 14.1066 31.8694 12.7769 31.8694C11.4605 31.8694 10.4839 31.7345 9.70304 31.4464C9.58253 31.4017 9.46611 31.3526 9.35373 31.2994C9.2432 31.3523 9.12698 31.4013 9.00499 31.4464C8.22413 31.7361 7.24755 31.8694 5.93112 31.8694C4.60143 31.8694 3.60554 31.7356 2.79645 31.4464C1.2982 30.914 0.403993 29.7661 0.403993 28.3762C0.391793 27.6057 0.696218 26.8615 1.25177 26.3036V19.564C0.736691 19.1442 0 18.3808 0 17.1319C0 16.0592 0.547132 15.1228 1.54136 14.4968C3.1087 13.4785 5.66198 13.019 6.98118 13.019C9.06912 13.019 9.91526 14.1695 10.2341 14.8553C10.611 15.6626 10.611 16.5276 10.611 17.4434C11.0825 17.3409 11.5645 17.2894 12.0479 17.29C12.4318 17.289 12.8148 17.323 13.1919 17.3916C12.4066 16.4372 11.9496 15.1847 11.9496 14.0004C11.9478 13.2684 12.1693 12.5518 12.5868 11.9384C12.2905 11.3118 12.1418 10.6306 12.1513 9.94302C12.1513 6.67501 15.0743 4.21065 18.949 4.21065C19.7012 4.20918 20.4504 4.30323 21.1768 4.49034C21.6202 4.27949 22.1091 4.17085 22.6043 4.17311C24.0252 4.17311 25.2344 5.04073 25.9837 6.20814C27.55 4.94504 29.7352 4.21171 32.2979 4.21171C34.9191 4.21171 37.1375 5.17609 38.5816 6.76806C40.0279 5.1819 42.1849 4.21171 44.6774 4.21171C46.1287 4.21171 47.4407 4.54163 48.5084 5.11581C48.4627 4.88593 48.4398 4.65244 48.4399 4.41843C48.4399 1.96044 50.7418 0.309258 54.1688 0.309258C57.178 0.309258 58.5248 2.15976 58.5248 3.99335C58.5325 4.72044 58.2916 5.43002 57.839 6.0141C57.8727 6.07808 57.9025 6.13993 57.9285 6.19863C57.9328 6.20706 57.9367 6.21571 57.9401 6.22453C58.3992 5.89833 58.892 5.61789 59.4107 5.38758C60.9775 4.67698 62.8869 4.26987 64.6496 4.26987C65.9213 4.26987 67.0323 4.49669 67.959 4.92283C67.8842 4.65781 67.847 4.38426 67.849 4.10967C67.849 3.03637 68.3955 2.10055 69.3894 1.47455C70.9574 0.457827 73.5104 0.000488281 74.8301 0.000488281C76.9178 0.000488281 77.7638 1.15097 78.0826 1.83672C78.4589 2.64565 78.4589 3.51645 78.4589 4.438V13.2802C79.0144 13.838 79.319 14.5823 79.3069 15.3528C79.3069 16.6841 78.4858 17.7934 77.0995 18.3522C78.3904 19.3393 79.1501 20.9567 79.1501 22.9642V26.2951C79.705 26.8545 80.0096 27.5995 79.9981 28.3709C79.9981 29.7609 79.1034 30.9087 77.6051 31.4411C76.7962 31.7282 75.8003 31.8641 74.471 31.8641C73.1546 31.8641 72.1779 31.7292 71.3971 31.4411C71.2768 31.3963 71.1603 31.3473 71.0483 31.2941C70.9376 31.347 70.8211 31.396 70.6989 31.4411C69.9187 31.7308 68.9414 31.8641 67.625 31.8641C66.2957 31.8641 65.2992 31.7303 64.4909 31.4411C63.9279 31.2486 63.4177 30.9368 62.9986 30.5291C61.6606 31.4712 59.9242 31.9999 58.0744 31.9999Z" fill="#A7A7A7"/>
<path d="M24.8284 13.3048C24.8284 15.3721 22.8494 16.8599 20.2044 16.8599C19.1946 16.8599 18.185 16.6669 17.377 16.2418C17.2355 16.6473 16.8923 16.8985 16.3871 16.8985C15.095 16.8985 14.1461 15.2759 14.1461 14.0006C14.1461 13.1314 14.6507 12.7063 15.1962 12.7063C15.7615 12.7063 16.1048 13.0732 16.4883 13.4993C17.498 14.6393 18.4071 15.0252 19.0731 15.0252C19.6589 15.0252 19.9214 14.7551 19.9214 14.4267C19.9214 14.0403 19.5782 13.8277 18.306 13.3836C16.2059 12.6492 14.3478 11.8958 14.3478 9.94691C14.3478 7.80247 16.3269 6.31466 18.9521 6.31466C19.881 6.31466 20.8908 6.50766 21.6783 6.9327C21.8198 6.52718 22.163 6.27607 22.6073 6.27607C23.6772 6.27607 24.6063 7.74431 24.6063 8.86675C24.6063 9.77511 23.9983 10.0648 23.5159 10.0648C23.0113 10.0648 22.6681 9.75554 22.2237 9.31143C21.5169 8.51833 20.6481 8.15196 20.0225 8.15196C19.4572 8.15196 19.1935 8.40307 19.1935 8.7124C19.1935 9.07933 19.4964 9.29398 20.7482 9.65878C22.4659 10.1558 24.8284 11.0255 24.8284 13.3048ZM25.5762 11.7018C25.5762 8.51413 28.2842 6.31146 32.3009 6.31146C35.8551 6.31146 38.1773 8.47554 38.1773 11.5083C38.1773 14.7154 35.4511 16.8789 31.4929 16.8789C27.8984 16.8789 25.5762 14.7344 25.5762 11.7018ZM33.351 13.8462C33.351 11.9915 32.3208 8.22437 31.1697 8.22437C30.6651 8.22437 30.4026 8.64733 30.4026 9.36376C30.4026 11.2381 31.4321 14.9682 32.6038 14.9682C33.0884 14.9666 33.351 14.5611 33.351 13.8462ZM38.8643 11.7985C38.8643 8.61031 41.348 6.31146 44.6805 6.31146C47.2852 6.31146 49.0824 7.70252 49.0824 9.36376C49.0824 10.5798 48.1533 11.2767 47.0835 11.2767C45.8311 11.2767 45.3868 10.2911 45.0839 9.38333C44.9226 8.88106 44.7208 8.20479 44.1754 8.20479C43.5674 8.20479 43.327 9.0164 43.327 9.88561C43.327 11.7018 44.3975 12.996 46.0737 12.996C46.7601 12.996 47.2653 12.7846 47.8306 12.4937C48.113 12.3388 48.3756 12.2231 48.6596 12.2231C49.1018 12.2231 49.4267 12.5128 49.4267 13.17C49.4267 13.788 49.1238 14.5219 48.5585 15.1595C47.7096 16.1065 46.2572 16.8789 44.2964 16.8789C41.1258 16.8789 38.8643 14.8312 38.8643 11.7985ZM50.2745 15.353C50.2745 14.8508 50.5773 14.6572 50.8597 14.4447C51.0415 14.3099 51.1222 14.1746 51.1222 13.7495V10.0786C51.1222 9.63444 50.941 9.4415 50.7592 9.30616C50.4762 9.09464 50.2137 8.84247 50.2137 8.41737C50.2137 8.06945 50.375 7.79927 50.7592 7.54817C51.7887 6.85239 53.7883 6.44686 54.7383 6.44686C56.0713 6.44686 56.0912 7.21926 56.0912 8.74572V13.7495C56.0912 14.1724 56.1719 14.3099 56.3537 14.4447C56.6367 14.6562 56.9395 14.8508 56.9395 15.353C56.9395 16.4348 55.4855 16.7441 53.6076 16.7441C51.7296 16.7441 50.2745 16.4348 50.2745 15.353ZM50.6376 4.41815C50.6376 2.91131 52.5564 2.40903 54.1746 2.40903C55.6668 2.40903 56.3355 3.04666 56.3355 3.99517C56.3355 5.34763 54.2956 5.9271 52.7985 5.9271C51.3245 5.92499 50.6376 5.30692 50.6376 4.41815ZM69.8229 14.4838C69.8229 15.5074 68.7521 16.7044 66.8136 16.7044C65.5419 16.7044 64.6126 16.1826 64.0673 15.2769C63.3603 16.2233 62.2092 16.8223 60.8159 16.8223C59.1197 16.8223 57.6049 15.914 57.6049 14.0016C57.6049 11.8762 59.5033 10.9102 61.9062 10.9102C62.5382 10.9077 63.1684 10.9726 63.7853 11.1037V9.78886C63.7853 8.76523 63.7251 8.22437 63.2404 8.22437C62.8364 8.22437 62.5739 8.70707 62.2909 9.11259C61.867 9.73119 61.2005 10.4075 59.8879 10.4075C58.8584 10.4075 58.3129 9.84702 58.3129 9.28658C58.3129 7.83786 61.6449 6.36912 64.6542 6.36912C67.4005 6.36912 68.8341 7.64435 68.8341 9.96435V13.0167C68.8341 13.6929 69.0158 14.0212 69.6417 14.2147C69.8005 14.2713 69.8229 14.3289 69.8229 14.4838ZM63.9461 13.17V12.4742C63.8609 12.3807 63.7551 12.3062 63.6364 12.2561C63.5176 12.206 63.3889 12.1816 63.2592 12.1845C62.7745 12.1845 62.4518 12.6291 62.4518 13.4005C62.4518 14.2311 62.8353 14.56 63.1989 14.56C63.6659 14.5611 63.9461 14.2882 63.9461 13.17ZM70.3886 15.353C70.3886 14.8508 70.7112 14.6572 71.0145 14.4447C71.1956 14.3099 71.2968 14.1746 71.2968 13.7495V6.13595C71.2968 5.55436 71.0145 5.30534 70.772 5.13139C70.4085 4.86121 70.0456 4.61008 70.0456 4.1078C70.0456 3.7599 70.2068 3.47016 70.6107 3.21849C71.7012 2.5042 73.8216 2.09814 74.8315 2.09814C76.2446 2.09814 76.2651 2.89122 76.2651 4.43613V13.7495C76.2651 14.1724 76.3457 14.3099 76.5275 14.4447C76.8104 14.6562 77.1131 14.8508 77.1131 15.353C77.1131 16.4348 75.659 16.7441 73.7812 16.7441C71.8625 16.7441 70.3886 16.4348 70.3886 15.353ZM16.1086 28.3738C16.1086 29.456 14.6546 29.7648 12.7766 29.7648C10.8987 29.7648 9.6265 29.456 9.6265 28.4319C9.6265 27.9296 9.90887 27.7361 10.0686 27.5431C10.2897 27.2724 10.2897 27.0022 10.2897 26.7707V24.935C10.2897 23.0226 9.98624 22.4818 9.34023 22.4818C8.73229 22.4818 8.43162 22.9644 8.4112 24.5871V26.7707C8.4112 26.9821 8.4112 27.2344 8.63226 27.5431C8.77376 27.7361 9.07437 27.9296 9.07437 28.4319C9.07437 29.456 7.80327 29.7648 5.92423 29.7648C4.0452 29.7648 2.59723 29.456 2.59723 28.3738C2.59723 27.8714 2.90009 27.6785 3.1825 27.4659C3.36432 27.3306 3.44501 27.1958 3.44501 26.7707V19.1571C3.44501 18.5756 3.1626 18.326 2.91998 18.1526C2.55689 17.8819 2.19324 17.6307 2.19324 17.1285C2.19324 16.7806 2.35462 16.4908 2.75861 16.2397C3.84901 15.5249 5.96955 15.1194 6.97927 15.1194C8.39296 15.1194 8.41287 15.9125 8.41287 17.4568V21.5718C9.06336 20.3949 10.2521 19.3903 12.0477 19.3903C14.108 19.3903 15.2586 20.7428 15.2586 22.9644V26.7712C15.2586 27.1942 15.3393 27.3311 15.5212 27.4665C15.8058 27.6785 16.1086 27.8714 16.1086 28.3738ZM27.4381 26.2488C27.4381 26.7897 27.1955 27.4078 26.7313 27.9682C25.9023 29.0114 24.3283 29.9002 22.1674 29.9002C18.9769 29.9002 16.7353 27.7943 16.7353 24.8578C16.7353 21.6897 19.2776 19.3903 22.5714 19.3903C25.7215 19.3903 27.3795 21.3609 27.3795 22.8873C27.3795 23.9304 26.6931 24.4908 25.4004 24.4908H21.1577C21.5213 25.4954 22.4288 26.077 23.7624 26.077C24.5914 26.077 25.217 25.9031 25.8227 25.5747C26.1051 25.4204 26.388 25.3045 26.6705 25.3045C27.1148 25.3025 27.4381 25.5921 27.4381 26.2488ZM20.956 23.3124L21.8242 23.2542C23.076 23.177 23.5811 22.7329 23.5811 22.1143C23.5811 21.593 23.2175 21.1869 22.5714 21.1869C21.622 21.1869 20.956 22.0952 20.956 23.3124ZM40.3437 27.5061C40.3437 28.5303 39.2733 29.7267 37.3345 29.7267C36.0634 29.7267 35.1333 29.2054 34.5884 28.2992C33.8815 29.2461 32.7304 29.8446 31.3371 29.8446C29.641 29.8446 28.1261 28.9368 28.1261 27.0244C28.1261 24.899 30.0245 23.933 32.4275 23.933C33.0594 23.9303 33.6897 23.995 34.3066 24.126V22.81C34.3066 21.786 34.2463 21.245 33.7616 21.245C33.3576 21.245 33.0951 21.7283 32.8122 22.1338C32.3855 22.7519 31.7223 23.4281 30.407 23.4281C29.3768 23.4281 28.8319 22.8677 28.8319 22.3078C28.8319 20.8586 32.1639 19.3903 35.1725 19.3903C37.9192 19.3903 39.3528 20.6656 39.3528 22.9856V26.0363C39.3528 26.7125 39.5347 27.0409 40.1608 27.2344C40.3222 27.2946 40.3437 27.3501 40.3437 27.5061ZM34.4662 26.1907V25.497C34.381 25.4035 34.2752 25.329 34.1565 25.2789C34.0378 25.2289 33.909 25.2044 33.7793 25.2073C33.2946 25.2073 32.9718 25.6514 32.9718 26.4233C32.9718 27.2539 33.3554 27.5822 33.719 27.5822C34.1833 27.5817 34.4662 27.3116 34.4662 26.1907ZM53.0046 20.7238C53.0046 21.245 52.7421 21.5734 52.1159 21.9213C51.6738 22.1724 51.3284 22.9454 50.763 24.0272C50.1551 25.1861 49.4306 26.5581 48.7237 27.7171C47.8549 29.1277 47.4714 29.7648 46.3202 29.7648C45.169 29.7648 44.7651 29.1452 43.9781 27.8524C43.4127 26.925 42.3018 24.935 41.6569 23.6227C40.95 22.1952 40.9097 22.0963 40.6472 21.8837C40.3034 21.613 39.9602 21.3815 39.9602 20.8596C39.9569 20.1041 40.7859 19.4696 43.715 19.4696C46.239 19.4696 47.4509 19.9724 47.4509 20.8607C47.4509 21.3439 47.0669 21.6337 46.8044 21.8076C46.5418 21.9815 46.5418 22.2517 46.623 22.6187C46.764 23.2563 47.3293 24.512 47.9152 25.6133C48.4607 24.4734 48.9653 23.2177 49.0664 22.6187C49.1675 22.0588 49.0056 21.9044 48.6624 21.6527C48.2988 21.3825 48.0765 21.0928 48.0765 20.7645C48.0765 20.03 48.7834 19.4696 50.6613 19.4696C52.2977 19.4696 53.0046 19.9507 53.0046 20.7238ZM63.3448 26.2488C63.3448 26.7897 63.1028 27.4078 62.638 27.9682C61.809 29.0114 60.235 29.9002 58.0741 29.9002C54.8837 29.9002 52.642 27.7943 52.642 24.8578C52.642 21.6897 55.1843 19.3903 58.4781 19.3903C61.6283 19.3903 63.2863 21.3609 63.2863 22.8873C63.2863 23.9304 62.5993 24.4908 61.3072 24.4908H57.0661C57.4298 25.4954 58.3372 26.077 59.6713 26.077C60.5003 26.077 61.1254 25.9031 61.7311 25.5747C62.0135 25.4204 62.2964 25.3045 62.5794 25.3045C63.0221 25.3025 63.3448 25.5921 63.3448 26.2488ZM56.8627 23.3124L57.7309 23.2542C58.9827 23.177 59.4878 22.7329 59.4878 22.1143C59.4878 21.593 59.1242 21.1869 58.4781 21.1869C57.5315 21.1869 56.8627 22.0952 56.8627 23.3124ZM77.8043 28.3738C77.8043 29.456 76.3509 29.7648 74.4725 29.7648C72.5947 29.7648 71.3224 29.456 71.3224 28.4319C71.3224 27.9296 71.6251 27.7361 71.7646 27.5431C71.9854 27.2534 71.9854 27.0218 71.9854 26.7707V24.935C71.9854 23.0226 71.6827 22.4818 71.0369 22.4818C70.4289 22.4818 70.1275 22.9644 70.1077 24.5871V26.7707C70.1077 27.0218 70.1077 27.2534 70.3291 27.5431C70.4705 27.7361 70.7707 27.9296 70.7707 28.4319C70.7707 29.456 69.4996 29.7648 67.6206 29.7648C65.7416 29.7648 64.2888 29.456 64.2888 28.3738C64.2888 27.8328 64.6523 27.6399 64.8744 27.4659C65.1374 27.2545 65.1374 27.0604 65.1374 26.7707V23.0998C65.1374 22.6557 64.955 22.4622 64.7733 22.3268C64.491 22.1153 64.2286 21.8631 64.2286 21.4386C64.2286 21.0907 64.3899 20.8199 64.7733 20.5688C65.8036 19.8736 67.8024 19.4675 68.7528 19.4675C70.0238 19.4675 70.1057 20.1823 70.1057 21.5734C70.7515 20.3949 71.9432 19.3903 73.7403 19.3903C75.7998 19.3903 76.9512 20.7428 76.9512 22.9644V26.7712C76.9512 27.0609 76.9512 27.2539 77.2136 27.4665C77.4408 27.6399 77.8043 27.8328 77.8043 28.3738Z" fill="white"/>
</g>
</g>
<defs>
<clipPath id="clip0_1_322">
<rect width="80" height="32" fill="white"/>
</clipPath>
</defs>
</svg>
