<svg width="107" height="32" viewBox="0 0 107 32" fill="none" xmlns="http://www.w3.org/2000/svg">
<g clip-path="url(#clip0_1_314)">
<path d="M15.8095 0.0655896C17.3801 0.293278 18.1417 0.929234 18.2289 2.09908C18.2607 2.60156 18.1575 3.37099 18.0147 3.59083C17.9592 3.6772 17.8006 3.6772 17.0152 3.55942C15.9522 3.4024 14.6196 3.42595 13.6677 3.63009C9.10655 4.60365 5.84626 8.60785 5.06887 14.1979C4.93402 15.148 4.93402 17.943 5.06094 18.8695C5.56069 22.4104 7.18685 24.6009 9.8918 25.3625C10.8041 25.6216 12.6206 25.6216 13.525 25.3625C15.1511 24.8993 16.9597 23.7138 18.2209 22.2926C19.7837 20.5261 20.9577 18.1864 21.4099 15.9096C21.6716 14.6219 21.7034 14.7554 20.9815 14.3628C20.0931 13.8839 19.2363 13.2244 18.8238 12.7141C18.3875 12.1723 17.8244 11.0339 17.6498 10.3508C16.9835 7.76769 17.8006 5.50655 19.7361 4.54869C20.0457 4.42048 20.3711 4.33336 20.7038 4.28959C21.2592 4.20223 21.8277 4.25182 22.3591 4.43397C22.8904 4.61612 23.3682 4.9252 23.7499 5.33382C24.8288 6.52722 25.3047 8.19954 25.3047 10.8062C25.3047 14.2293 24.6622 17.1029 23.2502 19.9687C21.1401 24.2555 17.6023 27.1605 13.4297 28.0241C11.8829 28.346 9.70144 28.3538 8.23392 28.0555C4.29942 27.2469 1.43579 24.4439 0.388692 20.3848C0.118988 19.3327 0 18.1864 0 16.5926C0 12.5178 0.936034 9.22019 2.97469 6.18962C4.08201 4.52933 5.5369 3.12398 7.24081 2.06875C8.94474 1.01352 10.8579 0.333051 12.8507 0.073441C13.5805 -0.0231301 15.1749 -0.0231302 15.8095 0.0655896Z" fill="#A7A7A7"/>
<path d="M31.156 24.82V30.2328L28.171 31.5494V11.9894H31.156V13.1161C31.9302 12.2917 32.9923 11.6597 34.6851 11.6597C38.3872 11.6597 40.7138 14.4076 40.7138 19.0226C40.7138 23.6376 38.2746 26.3589 34.6851 26.3589C32.9638 26.3589 31.8731 25.6719 31.156 24.82ZM37.7273 19.0226C37.7273 16.3029 36.4644 14.3519 34.2552 14.3519C32.8773 14.3519 31.816 14.929 31.156 15.9457V22.0493C31.816 22.9012 32.8488 23.6698 34.2552 23.6698C36.4929 23.6659 37.7273 22.0179 37.7273 19.0226Z" fill="#A7A7A7"/>
<path d="M43.5811 18.9951C43.5811 14.3794 46.221 11.6597 50.2381 11.6597C53.7109 11.6597 56.5515 13.7474 56.5515 18.2265C56.5515 18.8303 56.523 19.5722 56.4365 20.0669H46.5653C46.6224 22.3752 48.3731 23.8316 50.2674 23.8316C51.4723 23.8316 52.5631 23.3369 53.3087 22.4026L55.2601 24.3262C54.1988 25.5353 52.5337 26.3597 50.2381 26.3597C46.1631 26.3589 43.5811 23.6117 43.5811 18.9951ZM53.5673 17.7594C53.5094 15.1488 51.8166 14.1871 50.2357 14.1871C48.3707 14.1871 46.7065 15.1488 46.5629 17.7594H53.5673Z" fill="#A7A7A7"/>
<path d="M69.0636 17.6527C69.0636 15.2894 67.8007 14.3552 66.1365 14.3552C64.3572 14.3552 62.9793 15.1796 62.9793 17.5978V26.0293H59.9951V11.9896H62.9793V13.3345C63.9265 12.1803 65.1608 11.6582 66.7679 11.6582C69.8378 11.6582 72.0478 13.252 72.0478 17.648V26.0293H69.0636V17.6527Z" fill="#A7A7A7"/>
<path d="M73.4825 6.79651H76.6959L81.2588 20.2042C81.4305 20.7263 81.6892 21.5232 81.8931 22.4026C82.0941 21.5232 82.3527 20.7263 82.5282 20.2042L87.033 6.79651H90.2184L83.3604 26.0322H80.3697L73.4825 6.79651Z" fill="#A7A7A7"/>
<path d="M91.7909 16.413C91.7909 11.9895 93.9717 6.46692 100.142 6.46692C103.93 6.46692 106.17 8.39052 106.972 10.2858L104.245 11.4949C103.269 10.0384 102.208 9.21803 100.142 9.21803C96.124 9.21803 94.8901 13.2301 94.8901 16.4169C94.8901 19.8236 96.4681 23.6157 100.142 23.6157C102.125 23.6157 103.298 22.599 104.217 21.1426L107 22.1632C105.881 24.6631 103.7 26.3668 100.142 26.3668C93.9148 26.359 91.7909 21.1661 91.7909 16.413Z" fill="#A7A7A7"/>
</g>
<defs>
<clipPath id="clip0_1_314">
<rect width="107" height="32" fill="white"/>
</clipPath>
</defs>
</svg>
