<svg width="165" height="32" viewBox="0 0 165 32" fill="none" xmlns="http://www.w3.org/2000/svg">
<g clip-path="url(#clip0_1_304)">
<mask id="mask0_1_304" style="mask-type:luminance" maskUnits="userSpaceOnUse" x="0" y="0" width="165" height="32">
<path d="M165 0H0V32H165V0Z" fill="white"/>
</mask>
<g mask="url(#mask0_1_304)">
<path d="M41.5156 7.35124V10.0566H45.9661V20.878H49.0486V10.0566H53.4797V7.35124H41.5156ZM58.1089 16.5035V18.0384H57.3382V16.5035L55.2189 11.1887H51.7319L56.1822 20.3025V22.1252L52.8492 22.0869V24.7731L57.6273 24.9074C58.6868 24.9457 59.2841 24.3701 59.2841 23.2956V20.3025L63.7345 11.1887H60.2281L58.1089 16.5035ZM64.6897 24.5236H67.7915V20.2833L67.1942 18.5564H67.9841C68.485 19.842 69.3906 21.0699 71.818 21.0699C74.6308 21.0699 76.0179 18.7868 76.0179 16.0429C76.0179 13.2992 74.6308 10.9968 71.818 10.9968C69.3906 10.9968 68.485 12.2248 67.9841 13.5103H67.1942L67.7915 11.7835V11.1887H64.6897V24.5236ZM67.7915 16.0429C67.7915 14.3928 68.6969 13.7022 70.3539 13.7022C72.0107 13.7022 72.9354 14.3928 72.9354 16.0429C72.9354 17.693 72.0107 18.3646 70.3539 18.3646C68.6969 18.3646 67.7915 17.693 67.7915 16.0429ZM76.9852 15.9087C76.9852 18.6524 78.6998 21.0699 82.4374 21.0699C85.8089 21.0699 87.4272 18.8635 87.6009 17.4628H84.5182C84.3255 18.1919 83.5163 18.5756 82.4374 18.5756C80.6842 18.5756 79.8943 17.7889 79.8943 16.6761H87.2535V15.7168C87.2535 12.7812 85.1347 10.9968 82.1099 10.9968C79.0851 10.9968 76.9852 12.8388 76.9852 15.9087ZM79.8943 14.9493C79.8943 14.2202 80.3953 13.5103 82.1099 13.5103C83.8245 13.5103 84.364 14.2202 84.364 14.9493H79.8943ZM106.869 17.1558C106.869 14.3354 103.035 13.2608 100.531 12.4167C98.3537 11.6875 98.0454 11.4572 98.0454 10.8433C98.0454 10.1717 98.8938 9.86479 100.281 9.86479C101.957 9.86479 103.228 10.306 103.228 11.9561H106.311C106.311 9.26994 104.442 7.15938 100.281 7.15938C96.774 7.15938 94.9443 8.42571 94.9443 10.7282C94.9443 13.376 97.2751 14.1435 100.146 15.1028C102.13 15.7744 103.787 16.2156 103.787 17.1942C103.787 17.9232 103.132 18.3646 101.147 18.3646C98.45 18.3646 97.4297 17.7122 97.4297 15.6592H94.3277C94.3277 19.0744 96.1574 21.0699 101.051 21.0699C105.232 21.0699 106.869 19.4774 106.869 17.1558ZM112.865 13.894H116.062V11.1887H112.865V8.40653L109.763 9.36594V11.1887H107.451V13.894H109.763V19.4391C109.763 20.4944 110.34 21.1083 111.4 21.0699L116.448 20.878V18.1727L112.865 18.3646V13.894ZM122.884 18.3646C121.401 18.3646 120.899 17.693 120.899 15.9279V11.1887H117.797V16.4267C117.797 19.4199 119.301 21.0699 121.786 21.0699C123.867 21.0699 125.081 19.7076 125.466 17.9808H126.236L125.659 19.7076V20.878H128.761V11.1887H125.659V14.7766C125.659 17.5012 124.56 18.3646 122.884 18.3646ZM141.239 6.77563H138.156V11.7835L138.734 13.5103H137.963C137.462 12.2248 136.538 10.9968 134.129 10.9968C131.316 10.9968 129.91 13.28 129.91 16.0237C129.91 18.7676 131.316 21.0699 134.129 21.0699C136.538 21.0699 137.462 19.842 137.963 18.5564H138.734L138.156 20.2833V20.878H141.239V6.77563ZM138.156 16.0237C138.156 17.6548 137.231 18.3646 135.574 18.3646C133.918 18.3646 133.012 17.6548 133.012 16.0237C133.012 14.3928 133.918 13.7022 135.574 13.7022C137.231 13.7022 138.156 14.3928 138.156 16.0237ZM146.804 10.2293C147.942 10.2293 148.655 9.69207 148.655 8.69437C148.655 7.71579 147.942 7.15938 146.804 7.15938C145.668 7.15938 144.994 7.71579 144.994 8.69437C144.994 9.69207 145.668 10.2293 146.804 10.2293ZM151.312 20.878V18.1727H148.558V12.6085C148.558 11.534 147.96 10.9392 146.863 10.9968L143.202 11.1887V13.894L145.572 13.7789V18.1727H142.817V20.878H151.312ZM151.885 16.0237C151.885 19.4199 154.313 21.0699 157.376 21.0699C160.419 21.0699 162.847 19.4199 162.847 16.0237C162.847 12.6469 160.419 10.9968 157.376 10.9968C154.313 10.9968 151.885 12.6469 151.885 16.0237ZM154.987 16.0237C154.987 14.412 155.911 13.7022 157.376 13.7022C158.82 13.7022 159.765 14.412 159.765 16.0237C159.765 17.6548 158.82 18.3646 157.376 18.3646C155.911 18.3646 154.987 17.6548 154.987 16.0237Z" fill="#A7A7A7"/>
<g filter="url(#filter0_d_1_304)">
<path d="M0.163736 7.1292C0.311542 3.4851 3.1568 0.65233 6.8158 0.502963C9.09028 0.410117 11.9619 0.337891 15.3924 0.337891C18.8548 0.337891 21.748 0.411467 24.0324 0.505562C27.6624 0.655082 30.4819 3.45115 30.6262 7.06652C30.7159 9.31482 30.7849 12.2005 30.7849 15.7598C30.7849 19.3757 30.7137 22.2965 30.6219 24.5598C30.4773 28.1265 27.72 30.8786 24.1387 31.0224C21.8953 31.1125 18.998 31.1816 15.3924 31.1816C11.8209 31.1816 8.94431 31.1138 6.70985 31.025C3.09964 30.8814 0.316167 28.0922 0.168088 24.4968C0.0738211 22.2081 0 19.289 0 15.7598C0 12.285 0.0715586 9.40182 0.163736 7.1292Z" fill="#A7A7A7"/>
</g>
<path fill-rule="evenodd" clip-rule="evenodd" d="M14.4965 14.7494C12.745 15.2281 11.4516 16.8343 11.4516 18.7515C11.4516 21.0482 13.3081 22.8989 15.5845 22.8989C17.4892 22.8989 19.0999 21.6034 19.5753 19.8352H15.5851L15.5845 18.7515H14.4965V14.7494ZM15.5845 18.7515H14.4965C14.4965 19.3499 14.9842 19.8352 15.5851 19.8352L15.5845 18.7515ZM16.6728 17.6679V13.5204C16.6728 12.9218 16.1855 12.4368 15.5845 12.4368C12.0938 12.4368 9.27541 15.2701 9.27541 18.7515C9.27541 22.2329 12.0938 25.0662 15.5845 25.0662C19.0752 25.0662 21.8938 22.2329 21.8938 18.7515C21.8938 18.153 21.4066 17.6679 20.8057 17.6679H16.6728Z" fill="white"/>
<path fill-rule="evenodd" clip-rule="evenodd" d="M8.15332 8.31068C8.15332 7.7122 8.64047 7.22705 9.24136 7.22705H21.6455C22.2465 7.22705 22.7336 7.7122 22.7336 8.31068V13.2165C22.7336 13.8149 22.2465 14.3001 21.6455 14.3001H9.24136C8.64047 14.3001 8.15332 13.8149 8.15332 13.2165V8.31068ZM10.3295 9.39428V12.1328H20.5575V9.39428H10.3295Z" fill="white"/>
</g>
</g>
<defs>
<filter id="filter0_d_1_304" x="0" y="0.337891" width="31.6477" height="31.7065" filterUnits="userSpaceOnUse" color-interpolation-filters="sRGB">
<feFlood flood-opacity="0" result="BackgroundImageFix"/>
<feColorMatrix in="SourceAlpha" type="matrix" values="0 0 0 0 0 0 0 0 0 0 0 0 0 0 0 0 0 0 127 0" result="hardAlpha"/>
<feOffset dx="0.431383" dy="0.431383"/>
<feGaussianBlur stdDeviation="0.215692"/>
<feComposite in2="hardAlpha" operator="out"/>
<feColorMatrix type="matrix" values="0 0 0 0 1 0 0 0 0 1 0 0 0 0 1 0 0 0 0.2 0"/>
<feBlend mode="normal" in2="BackgroundImageFix" result="effect1_dropShadow_1_304"/>
<feBlend mode="normal" in="SourceGraphic" in2="effect1_dropShadow_1_304" result="shape"/>
</filter>
<clipPath id="clip0_1_304">
<rect width="165" height="32" fill="white"/>
</clipPath>
</defs>
</svg>
