<svg width="96" height="40" viewBox="0 0 96 40" fill="none" xmlns="http://www.w3.org/2000/svg">
<g clip-path="url(#clip0_1_334)">
<path d="M52.4925 30.0525C51.002 30.0525 49.8428 29.6456 49.0162 28.8333C48.2064 28.0042 47.8007 26.8413 47.8007 25.3463V19.494H45.5156V16.641H45.7587C46.4075 16.641 46.9088 16.4703 47.2659 16.1289C47.6229 15.7876 47.8007 15.2922 47.8007 14.6415V13.2027H50.9853V16.641H54.024V19.494H50.9853V25.1756C50.9853 25.8584 51.1631 26.3781 51.5201 26.7362C51.8771 27.0776 52.4438 27.2483 53.2217 27.2483C53.4815 27.2483 53.7641 27.2239 54.0726 27.1751V29.9306C53.6031 30.0113 53.0759 30.0525 52.4925 30.0525Z" fill="#272522"/>
<path d="M61.7434 30.1988C60.4793 30.1988 59.3049 29.8986 58.2185 29.2966C57.149 28.6946 56.3057 27.8656 55.6903 26.8094C55.075 25.7532 54.7666 24.5736 54.7666 23.2736C54.7666 21.9736 55.075 20.7788 55.6903 19.7379C56.3057 18.6817 57.149 17.8526 58.2185 17.2506C59.2881 16.6486 60.4626 16.3484 61.7434 16.3484C63.0242 16.3484 64.2154 16.6486 65.2683 17.2506C66.3379 17.8526 67.1812 18.6817 67.7965 19.7379C68.4286 20.794 68.7446 21.9736 68.7446 23.2736C68.7446 24.5736 68.4286 25.7776 67.7965 26.8338C67.1812 27.8747 66.3379 28.6946 65.2683 29.2966C64.1987 29.8986 63.0242 30.1988 61.7434 30.1988ZM61.7677 27.2727C62.4651 27.2727 63.088 27.102 63.6396 26.7606C64.1911 26.4192 64.6195 25.9483 64.928 25.3463C65.2516 24.7291 65.4142 24.0371 65.4142 23.2736C65.4142 22.5101 65.2516 21.8273 64.928 21.2253C64.6195 20.6234 64.1911 20.1524 63.6396 19.811C63.088 19.4528 62.456 19.2745 61.7434 19.2745C61.0308 19.2745 60.414 19.4528 59.8473 19.811C59.2957 20.1524 58.8582 20.6234 58.5345 21.2253C58.2261 21.8273 58.0727 22.5101 58.0727 23.2736C58.0727 24.0371 58.2261 24.7291 58.5345 25.3463C58.8582 25.9483 59.2957 26.4192 59.8473 26.7606C60.414 27.102 61.0552 27.2727 61.7677 27.2727Z" fill="#272522"/>
<path d="M70.4297 16.641H73.4198V19.2502L73.1767 18.7868C73.4851 17.9898 73.9787 17.3893 74.6596 16.9824C75.3567 16.5602 76.1912 16.3484 77.1637 16.3484C78.1355 16.3484 78.9789 16.5602 79.7402 16.9824C80.5016 17.4045 81.0938 17.9989 81.5147 18.7625C81.9357 19.526 82.1469 20.3962 82.1469 21.3716V29.9062H78.9626V22.1276C78.9626 21.5591 78.8482 21.0622 78.6222 20.6401C78.3955 20.2011 78.0794 19.8674 77.674 19.6403C77.2686 19.3965 76.8063 19.2745 76.2886 19.2745C75.4941 19.2745 74.8464 19.5351 74.3435 20.0548C73.8576 20.5745 73.6142 21.2665 73.6142 22.1276V29.9062H70.4297V16.641Z" fill="#272522"/>
<path d="M88.1231 30.1988C87.1993 30.1988 86.3966 30.0449 85.7165 29.7355C85.0356 29.4262 84.5083 28.9872 84.1362 28.4188C83.764 27.8336 83.5771 27.1584 83.5771 26.3948C83.5771 25.2731 83.9582 24.3542 84.7195 23.6394C85.4809 22.9079 86.6233 22.4125 88.1475 22.1519L92.4741 21.4448V23.8832L88.7552 24.5172C88.1231 24.6315 87.6535 24.8342 87.3448 25.1268C87.0368 25.4194 86.8832 25.802 86.8832 26.2729C86.8832 26.7439 87.0531 27.0944 87.3935 27.3702C87.7339 27.6308 88.1711 27.7604 88.7065 27.7604C89.3549 27.7604 89.9383 27.6217 90.4567 27.3459C90.9743 27.0532 91.3731 26.6554 91.6478 26.151C91.9395 25.6465 92.085 25.0948 92.085 24.4928V21.079C92.085 20.5105 91.859 20.0381 91.4048 19.6647C90.9669 19.2745 90.3835 19.0795 89.6547 19.0795C88.9738 19.0795 88.3735 19.2578 87.8558 19.6159C87.3374 19.9741 86.9482 20.4618 86.6883 21.079L84.0874 19.811C84.4766 18.7701 85.1892 17.9334 86.2267 17.2994C87.2643 16.6654 88.4466 16.3484 89.7758 16.3484C90.8458 16.3484 91.7933 16.5511 92.6203 16.958C93.4637 17.3482 94.1106 17.9014 94.5647 18.6162C95.0344 19.3309 95.2699 20.1524 95.2699 21.079V29.9062H92.2555V27.6385L92.9364 27.5897C92.418 28.4508 91.7527 29.1015 90.9426 29.5405C90.148 29.9794 89.2094 30.1988 88.1231 30.1988Z" fill="#272522"/>
<path d="M31.3064 0.492188H7.60457C3.40899 0.492188 0.0078125 3.90386 0.0078125 8.11237V31.8873C0.0078125 36.0959 3.40899 39.5075 7.60457 39.5075H31.3064C35.5019 39.5075 38.9031 36.0959 38.9031 31.8873V8.11237C38.9031 3.90386 35.5019 0.492188 31.3064 0.492188Z" fill="#272522"/>
<path d="M20.2155 16.19H8.82041V11.1607H16.7211C18.6506 11.1607 20.2155 12.7304 20.2155 14.6659V16.19Z" fill="white"/>
<path d="M30.2432 18.6559L26.6985 22.213L20.925 16.4201C23.6872 15.0545 27.1209 15.5239 29.4182 17.8283L30.2432 18.6559Z" fill="white"/>
<path fill-rule="evenodd" clip-rule="evenodd" d="M20.216 16.8496V28.9916H15.2021V26.4007C15.2021 22.4367 17.1879 18.9375 20.216 16.8496Z" fill="white"/>
</g>
<defs>
<clipPath id="clip0_1_334">
<rect width="96" height="40" fill="white"/>
</clipPath>
</defs>
</svg>
